PathFileType	4	(X/Y/Z)	37_1_20_p0_0-226_filt_butterworth.trc
DataRate	CameraRate	NumFrames	NumMarkers	Units	OrigDataRate	OrigDataStartFrame	OrigNumFrames
59.0	59.0	5	27	m	59.0	169	226
Frame#	Time	RHip			RKnee			RAnkle			RBigToe			RSmallToe			RHeel			LHip			LKnee			LAnkle			LBigToe			LSmallToe			LHeel			Neck			Head			Nose			RShoulder			RElbow			RWrist			RThumb			RIndex			RPinky			LShoulder			LElbow			LWrist			LThumb			LIndex			LPinky			
		X1	Y1	Z1	X2	Y2	Z2	X3	Y3	Z3	X4	Y4	Z4	X5	Y5	Z5	X6	Y6	Z6	X7	Y7	Z7	X8	Y8	Z8	X9	Y9	Z9	X10	Y10	Z10	X11	Y11	Z11	X12	Y12	Z12	X13	Y13	Z13	X14	Y14	Z14	X15	Y15	Z15	X16	Y16	Z16	X17	Y17	Z17	X18	Y18	Z18	X19	Y19	Z19	X20	Y20	Z20	X21	Y21	Z21	X22	Y22	Z22	X23	Y23	Z23	X24	Y24	Z24	X25	Y25	Z25	X26	Y26	Z26	X27	Y27	Z27	
169	2.864406779661017	0.36442718621314846	0.6427851331143958	0.4905241443254433	0.3596713664835551	0.8738783006038287	0.9434264434732614	0.3719107315628483	1.0624675721146455	1.3729632450674676	0.327458141202097	0.8726665106044881	1.429589219515806	0.38861697752093793	0.8965688784203695	1.4363210136341482	0.3576057656020156	1.1652460112430414	1.4238370788524277	0.1685173576988169	0.7214839080609717	0.48375463890860015	0.1878271371928804	0.9036160176645878	0.9407563149335111	0.18215962894209015	1.0608127034913983	1.3681709005279625	0.16642970471425608	0.870787835857882	1.404500111083096	0.11991457597042907	0.9196601218572185	1.4045454243482995	0.19482805782922794	1.1240550803379772	1.4244467002430201	0.28359309014663125	0.5513258379480688	-0.023382982983753655	0.2807238502147047	0.3715037149537473	-0.23511819774552445	0.2647247402124178	0.34142757576628374	-0.09569671159391852	0.43012212575927206	0.5256060015124855	0.08648016091765742	0.4850436664846458	0.7024536250220418	0.3146219741969873	0.4947034998020993	0.7203569021809728	0.5595599885492644	0.44579184705917524	0.6991879634641609	0.6693114589858123	0.4651408644692604	0.7124556633870209	0.6942821679789238	0.47335185794527757	0.7601870826063701	0.6941236828022301	0.12064169150797026	0.6135867018927393	0.0375932678635582	0.09877639468044244	0.6801315379621296	0.2946930764637243	0.05635623178621052	0.7534869428467434	0.5262680315538408	0.08818203683569081	0.7252982525053296	0.629973938727741	0.05359609894124626	0.7593061318525799	0.6522548773343402	0.04209939821008571	0.7986221863206887	0.6383628597166393
170	2.8813559322033897	0.3628873632710199	0.6391200022237062	0.49186487027221604	0.3579706023870961	0.8697257348903249	0.942217595441052	0.37191364387318476	1.0624845064371735	1.3729846003542905	0.3272791745921508	0.8772830317634135	1.4310262365477853	0.38848623722678816	0.8966236290785474	1.4373672589443722	0.35761083270424193	1.1652636006566306	1.4238660170856905	0.16876477589788824	0.7218364700968831	0.4846549218516635	0.18780442916303017	0.9038018259480098	0.9408205481615968	0.18211708533468313	1.0606089351030938	1.3669969343731962	0.166283130231689	0.8712102810796034	1.4051641008691453	0.12031745968216409	0.9200228232321757	1.4047418705429102	0.19514838622478722	1.123975239415442	1.425715763319115	0.2835332903092904	0.5511576680852249	-0.02333360678655701	0.28128167107486896	0.3686522029800296	-0.23412789675816262	0.26468381873820057	0.34140030827777507	-0.09540057727939831	0.43071232332213555	0.5257338339993879	0.08642468577364917	0.48504554037931513	0.7025246631604962	0.31461807303656547	0.4939825890668292	0.7186856950532675	0.5595123881830434	0.4452603930642522	0.6990602200404602	0.6699982976927624	0.46583713408259564	0.7133035843443363	0.6945156228873484	0.47355595735118583	0.759970321675346	0.6938681951133523	0.12094289260429654	0.6141876402552993	0.03663838253479426	0.09937549989181439	0.675493014008103	0.2947372227149305	0.056470520243117536	0.7532088949845668	0.5259412571334061	0.08826273962097507	0.7252083603614311	0.6295736197955621	0.05369959571325593	0.7589148542053424	0.652138843197189	0.04157796042471588	0.7987387645974896	0.6390713113927016
171	2.8983050847457625	0.36218324876593244	0.6376586236333283	0.4927978291716465	0.35607002146304817	0.8650778750826204	0.9418077208460129	0.3719136981146411	1.0625216553602064	1.3730169516781296	0.3264232176698326	0.8832340452255372	1.4328715877881149	0.38837377097020365	0.8965875069372379	1.4378221623535226	0.3576087959644233	1.1652349353285647	1.4238793174293318	0.16857283593617642	0.722332851637475	0.4857881436624505	0.1877895407702741	0.9039057782927158	0.9408522396496208	0.18199490011477282	1.060108242136048	1.3660604921176542	0.16643943232039585	0.871284126553915	1.4045697646144626	0.12024388824382064	0.9203203589642159	1.4049347742679672	0.1955511915330147	1.1241952086410136	1.4275485891732234	0.28352243349579376	0.5511219203090254	-0.023325346753219182	0.28155204074267653	0.3678021656171624	-0.23301914324742415	0.26468635106324756	0.3414684478971357	-0.09461591105706942	0.43068855819261875	0.5271890852259888	0.08646228789792314	0.48505498803892944	0.7025486420000452	0.3146281760359029	0.49383015641162187	0.720220398706823	0.5596033231533428	0.44462071170430045	0.6992158264355663	0.6705193903238892	0.465834525701108	0.7129214408479214	0.6946265827749705	0.47373327608479326	0.7599578746196587	0.6939675044715684	0.12090182677752409	0.6139075754394198	0.03632324326766337	0.09987112945990509	0.6719305230450262	0.2949082656340765	0.05656102042181148	0.7528555427062781	0.5259373791871872	0.08835562799359883	0.7251404497529687	0.6294734060800766	0.0537308912958172	0.7587407800436271	0.6522645325618637	0.04134970935003066	0.7992961666559044	0.6400627491118445
172	2.915254237288136	0.36201009536861084	0.6377588485234985	0.4930649681473816	0.35522341277624575	0.8630285368148466	0.9420339990120057	0.37191810680299237	1.0625332059184975	1.3730418173588492	0.32572976510743173	0.8877151515812489	1.4343002950991042	0.38815061514861005	0.896625563029285	1.4379450443037614	0.3575976420336121	1.1651472822838513	1.4238704827248654	0.16846578375741175	0.722346496693135	0.48659538519036716	0.18778705928610123	0.9038295011095832	0.9408496965092376	0.18191487768659903	1.0590503299371832	1.3647121525858572	0.16676299198921024	0.8710214079466837	1.4032421803915507	0.11967203130749365	0.920456309248465	1.4050657817369978	0.19572753179895444	1.124393154713613	1.4288950080393346	0.28352517903282637	0.5511470212190259	-0.023332464322700443	0.28163106573746877	0.3681014250027281	-0.23179718055030474	0.2647066257570073	0.34159767989064294	-0.09356420426157241	0.42991008938399605	0.5308507779098626	0.08670499063413188	0.48504999870976495	0.7025311093769996	0.31471695890689	0.49416334828887043	0.7259230036575605	0.5598503517855016	0.4443857715488791	0.6994321400461523	0.6714165008851108	0.46560627971417873	0.7131166623010629	0.6947631708709444	0.47381900073272853	0.760060995885315	0.6941922406069797	0.12083641862005848	0.6136227072137029	0.03635309098729583	0.10013644061678628	0.670478657355472	0.295008399681921	0.05654706613023965	0.7528339550884526	0.5260293356293535	0.08841080263090195	0.7251277874177058	0.629549876875078	0.05369801565976858	0.75881394021087	0.6525797455388951	0.041228430764488636	0.7998953174957301	0.640642631379862
173	2.9322033898305087	0.3619677099772809	0.6382986799993929	0.49293604909389277	0.3560716411252321	0.8651567079357069	0.9425760832353722	0.3719305241664437	1.0625069833358136	1.3730518475310678	0.3255779908182916	0.8894402252963741	1.434919539387542	0.38784732884105305	0.8967448634032117	1.4380240035052945	0.35758152699332874	1.1650278321387528	1.4238487804006779	0.16878562111517748	0.7207851967178751	0.4868522737585984	0.187790538122511	0.9036514145736043	0.9408307048408041	0.1818875881463028	1.0577333964767364	1.3629682560498568	0.16702505798323533	0.8705834969991743	1.402127532751459	0.11839926512491128	0.9203866646796788	1.4050449466026382	0.19558465556197888	1.1244799905224625	1.4293502507218125	0.2835274280153294	0.5511775611542358	-0.023344570833576404	0.281651339218329	0.368586935274812	-0.23055756287044749	0.2647271541038151	0.3417476005889551	-0.09275289540543824	0.4282549312675565	0.5357805390845395	0.08720847364504712	0.4850108172045772	0.7025769754315917	0.31502830761846323	0.4952448399343547	0.7350452220478191	0.5602066090122098	0.44442390685362293	0.6995720462155014	0.6730421979863994	0.4654649650441983	0.7155042196090702	0.6950556927491165	0.4738083503193844	0.7602716516829615	0.6946979449512791	0.12087273505292279	0.6136478709823977	0.036438819491295654	0.10020772343623398	0.6704253645057044	0.29500878998375557	0.05617176289801813	0.7542576960307522	0.5261397634297806	0.08837701112743956	0.7252362804340633	0.629953595014502	0.053648582015018	0.7589820615906453	0.6529078662680696	0.04115899422378042	0.8002823402835015	0.6408420807404263
